<mxfile host="65bd71144e">
    <diagram id="2VRwBY5XcnSWUHYAnTFd" name="Page-1">
        <mxGraphModel dx="447" dy="691" grid="0" gridSize="10" guides="1" tooltips="1" connect="1" arrows="1" fold="1" page="1" pageScale="1" pageWidth="827" pageHeight="1169" math="0" shadow="0">
            <root>
                <mxCell id="0"/>
                <mxCell id="1" parent="0"/>
                <mxCell id="58" value="" style="whiteSpace=wrap;html=1;fontSize=18;fillColor=none;strokeColor=#000000;strokeWidth=5;" parent="1" vertex="1">
                    <mxGeometry x="200" y="30" width="320" height="120" as="geometry"/>
                </mxCell>
                <mxCell id="38" value="" style="edgeStyle=none;html=1;" parent="1" source="33" target="37" edge="1">
                    <mxGeometry relative="1" as="geometry"/>
                </mxCell>
                <mxCell id="43" value="" style="edgeStyle=none;html=1;entryX=0.005;entryY=0.63;entryDx=0;entryDy=0;entryPerimeter=0;" parent="1" source="33" target="39" edge="1">
                    <mxGeometry relative="1" as="geometry">
                        <mxPoint x="240" y="60.004999999999995" as="targetPoint"/>
                    </mxGeometry>
                </mxCell>
                <mxCell id="33" value="" style="aspect=fixed;perimeter=ellipsePerimeter;html=1;align=center;shadow=0;dashed=0;spacingTop=3;image;image=img/lib/active_directory/generic_server.svg;" parent="1" vertex="1">
                    <mxGeometry x="50" y="90" width="58" height="103.57" as="geometry"/>
                </mxCell>
                <mxCell id="45" value="" style="edgeStyle=none;html=1;" parent="1" source="37" target="44" edge="1">
                    <mxGeometry relative="1" as="geometry"/>
                </mxCell>
                <mxCell id="37" value="" style="aspect=fixed;perimeter=ellipsePerimeter;html=1;align=center;shadow=0;dashed=0;spacingTop=3;image;image=img/lib/active_directory/generic_server.svg;" parent="1" vertex="1">
                    <mxGeometry x="271" y="160" width="58" height="103.57" as="geometry"/>
                </mxCell>
                <mxCell id="39" value="" style="sketch=0;html=1;dashed=0;whitespace=wrap;fillColor=#2875E2;strokeColor=#ffffff;points=[[0.005,0.63,0],[0.1,0.2,0],[0.9,0.2,0],[0.5,0,0],[0.995,0.63,0],[0.72,0.99,0],[0.5,1,0],[0.28,0.99,0]];shape=mxgraph.kubernetes.icon;prIcon=api" parent="1" vertex="1">
                    <mxGeometry x="250" y="30" width="100" height="120" as="geometry"/>
                </mxCell>
                <mxCell id="44" value="&lt;font style=&quot;font-size: 18px&quot;&gt;Frontend&lt;/font&gt;" style="whiteSpace=wrap;html=1;verticalAlign=top;shadow=0;dashed=0;spacingTop=3;labelBackgroundColor=default;" parent="1" vertex="1">
                    <mxGeometry x="388" y="181.78499999999997" width="120" height="60" as="geometry"/>
                </mxCell>
                <mxCell id="47" value="" style="edgeStyle=none;html=1;entryX=0.005;entryY=0.63;entryDx=0;entryDy=0;entryPerimeter=0;" parent="1" source="48" target="51" edge="1">
                    <mxGeometry relative="1" as="geometry">
                        <mxPoint x="240" y="310.005" as="targetPoint"/>
                    </mxGeometry>
                </mxCell>
                <mxCell id="48" value="" style="aspect=fixed;perimeter=ellipsePerimeter;html=1;align=center;shadow=0;dashed=0;spacingTop=3;image;image=img/lib/active_directory/generic_server.svg;" parent="1" vertex="1">
                    <mxGeometry x="50" y="350" width="58" height="103.57" as="geometry"/>
                </mxCell>
                <mxCell id="54" value="" style="edgeStyle=none;html=1;fontSize=18;entryX=0;entryY=0.5;entryDx=0;entryDy=0;exitX=0.995;exitY=0.63;exitDx=0;exitDy=0;exitPerimeter=0;" parent="1" source="51" target="52" edge="1">
                    <mxGeometry relative="1" as="geometry">
                        <mxPoint x="480" y="374.78" as="targetPoint"/>
                    </mxGeometry>
                </mxCell>
                <mxCell id="51" value="" style="sketch=0;html=1;dashed=0;whitespace=wrap;fillColor=#2875E2;strokeColor=#ffffff;points=[[0.005,0.63,0],[0.1,0.2,0],[0.9,0.2,0],[0.5,0,0],[0.995,0.63,0],[0.72,0.99,0],[0.5,1,0],[0.28,0.99,0]];shape=mxgraph.kubernetes.icon;prIcon=api" parent="1" vertex="1">
                    <mxGeometry x="250" y="326.57" width="100" height="120" as="geometry"/>
                </mxCell>
                <mxCell id="52" value="&lt;font style=&quot;font-size: 18px&quot;&gt;Frontend&lt;/font&gt;" style="whiteSpace=wrap;html=1;verticalAlign=top;shadow=0;dashed=0;spacingTop=3;labelBackgroundColor=default;" parent="1" vertex="1">
                    <mxGeometry x="450" y="371.78499999999997" width="120" height="60" as="geometry"/>
                </mxCell>
                <mxCell id="55" value="API server が &lt;br&gt;Application server 兼任" style="text;html=1;align=center;verticalAlign=middle;resizable=0;points=[];autosize=1;strokeColor=none;fillColor=none;fontSize=18;" parent="1" vertex="1">
                    <mxGeometry x="300" y="446.57" width="200" height="50" as="geometry"/>
                </mxCell>
                <mxCell id="56" value="&lt;span style=&quot;color: rgb(240 , 240 , 240) ; font-family: &amp;#34;helvetica&amp;#34; ; font-size: 18px ; font-style: normal ; font-weight: 400 ; letter-spacing: normal ; text-align: center ; text-indent: 0px ; text-transform: none ; word-spacing: 0px ; background-color: rgb(42 , 42 , 42) ; display: inline ; float: none&quot;&gt;Application server&lt;br&gt;&lt;/span&gt;" style="text;whiteSpace=wrap;html=1;fontSize=18;" parent="1" vertex="1">
                    <mxGeometry x="285" y="280" width="150" height="40" as="geometry"/>
                </mxCell>
                <mxCell id="59" value="" style="whiteSpace=wrap;html=1;fontSize=18;fillColor=none;strokeColor=#000000;strokeWidth=5;" parent="1" vertex="1">
                    <mxGeometry x="200" y="160" width="320" height="120" as="geometry"/>
                </mxCell>
                <mxCell id="60" value="" style="whiteSpace=wrap;html=1;fontSize=18;fillColor=none;strokeColor=#000000;strokeWidth=5;" parent="1" vertex="1">
                    <mxGeometry x="200" y="333.57" width="380" height="176.43" as="geometry"/>
                </mxCell>
                <mxCell id="61" value="Container" style="text;html=1;align=center;verticalAlign=middle;resizable=0;points=[];autosize=1;strokeColor=none;fillColor=none;fontSize=18;" parent="1" vertex="1">
                    <mxGeometry x="520" y="75" width="90" height="30" as="geometry"/>
                </mxCell>
                <mxCell id="62" value="Container" style="text;html=1;align=center;verticalAlign=middle;resizable=0;points=[];autosize=1;strokeColor=none;fillColor=none;fontSize=18;" parent="1" vertex="1">
                    <mxGeometry x="520" y="196.78" width="90" height="30" as="geometry"/>
                </mxCell>
                <mxCell id="63" value="Container" style="text;html=1;align=center;verticalAlign=middle;resizable=0;points=[];autosize=1;strokeColor=none;fillColor=none;fontSize=18;" parent="1" vertex="1">
                    <mxGeometry x="580" y="400" width="90" height="30" as="geometry"/>
                </mxCell>
                <mxCell id="64" value="domain" style="text;html=1;align=center;verticalAlign=middle;resizable=0;points=[];autosize=1;strokeColor=none;fillColor=none;fontSize=18;" parent="1" vertex="1">
                    <mxGeometry x="44" y="193.57" width="70" height="30" as="geometry"/>
                </mxCell>
                <mxCell id="65" value="domain" style="text;html=1;align=center;verticalAlign=middle;resizable=0;points=[];autosize=1;strokeColor=none;fillColor=none;fontSize=18;" parent="1" vertex="1">
                    <mxGeometry x="44" y="456.57" width="70" height="30" as="geometry"/>
                </mxCell>
                <mxCell id="66" value="分離する場合" style="text;html=1;align=center;verticalAlign=middle;resizable=0;points=[];autosize=1;strokeColor=none;fillColor=none;fontSize=18;" parent="1" vertex="1">
                    <mxGeometry x="10" y="30" width="120" height="30" as="geometry"/>
                </mxCell>
                <mxCell id="67" value="分離しない場合" style="text;html=1;align=center;verticalAlign=middle;resizable=0;points=[];autosize=1;strokeColor=none;fillColor=none;fontSize=18;" parent="1" vertex="1">
                    <mxGeometry x="9" y="303.57" width="140" height="30" as="geometry"/>
                </mxCell>
                <mxCell id="68" value="&lt;font color=&quot;#ff6666&quot;&gt;下の案でいこう&lt;/font&gt;" style="text;html=1;align=center;verticalAlign=middle;resizable=0;points=[];autosize=1;strokeColor=none;fillColor=none;" vertex="1" parent="1">
                    <mxGeometry x="8" y="558" width="94" height="18" as="geometry"/>
                </mxCell>
            </root>
        </mxGraphModel>
    </diagram>
</mxfile>